<svg width="147" height="30" viewBox="0 0 147 30" fill="none" xmlns="http://www.w3.org/2000/svg">
<path d="M0.4375 24H5.39062L11.0312 5.82812H12.4688V1.45312H8.3125L0.4375 24ZM4.67188 18.5312H17.5L16.3438 15H5.82812L4.67188 18.5312ZM16.7656 24H21.7188L13.8594 1.45312H11.125V5.82812L16.7656 24ZM24.0312 24H28.75V15.125H37.9219V11.3906H28.75V5.34375H38.7969V1.45312H24.0312V24ZM47.9375 24H56.5469C58.8073 24 60.7396 23.5521 62.3438 22.6562C63.9479 21.7604 65.1719 20.4635 66.0156 18.7656C66.8698 17.0677 67.2969 15.026 67.2969 12.6406V12.6094C67.2969 10.224 66.8698 8.20312 66.0156 6.54688C65.1615 4.88021 63.9323 3.61458 62.3281 2.75C60.7344 1.88542 58.8073 1.45312 56.5469 1.45312H47.9375V24ZM52.6562 20.0938V5.34375H55.9844C57.3698 5.34375 58.5469 5.625 59.5156 6.1875C60.4844 6.73958 61.2188 7.55729 61.7188 8.64062C62.2292 9.72396 62.4844 11.0521 62.4844 12.625V12.6562C62.4844 14.2812 62.2344 15.6458 61.7344 16.75C61.2448 17.8542 60.5156 18.6875 59.5469 19.25C58.5781 19.8125 57.3906 20.0938 55.9844 20.0938H52.6562ZM77.5781 24.3438C78.776 24.3438 79.8177 24.1875 80.7031 23.875C81.599 23.5625 82.3542 23.1458 82.9688 22.625C83.5938 22.1042 84.0885 21.5312 84.4531 20.9062C84.8177 20.2812 85.0625 19.6615 85.1875 19.0469L85.2344 18.875H81.0469L81.0156 18.9688C80.9115 19.2812 80.7135 19.5885 80.4219 19.8906C80.1302 20.1927 79.7552 20.4427 79.2969 20.6406C78.8385 20.8385 78.2969 20.9375 77.6719 20.9375C76.8802 20.9375 76.1979 20.7656 75.625 20.4219C75.0521 20.0677 74.6094 19.5625 74.2969 18.9062C73.9948 18.25 73.8438 17.4583 73.8438 16.5312V14.7656C73.8438 13.8073 73.9948 13 74.2969 12.3438C74.6094 11.6771 75.0365 11.1719 75.5781 10.8281C76.1302 10.4844 76.7604 10.3125 77.4688 10.3125C78.1771 10.3125 78.7969 10.4792 79.3281 10.8125C79.8698 11.1458 80.2917 11.6458 80.5938 12.3125C80.8958 12.9688 81.0469 13.7865 81.0469 14.7656V16.5156L83.2188 13.8281H71.5781V16.7031H85.375V15.2969C85.375 13.6094 85.0469 12.1354 84.3906 10.875C83.7448 9.61458 82.8229 8.64062 81.625 7.95312C80.4375 7.25521 79.026 6.90625 77.3906 6.90625C75.7552 6.90625 74.3333 7.26562 73.125 7.98438C71.9271 8.69271 70.9948 9.70312 70.3281 11.0156C69.6719 12.3177 69.3438 13.8594 69.3438 15.6406V15.6562C69.3438 17.4375 69.6719 18.9792 70.3281 20.2812C70.9948 21.5833 71.9427 22.5885 73.1719 23.2969C74.401 23.9948 75.8698 24.3438 77.5781 24.3438ZM94.625 24.3438C96.0625 24.3438 97.3281 24.1198 98.4219 23.6719C99.526 23.2135 100.391 22.5781 101.016 21.7656C101.641 20.9531 101.953 20 101.953 18.9062V18.8906C101.953 17.6615 101.568 16.6823 100.797 15.9531C100.036 15.224 98.776 14.6771 97.0156 14.3125L94.1719 13.7031C93.6094 13.5781 93.1615 13.4323 92.8281 13.2656C92.4948 13.099 92.2552 12.9062 92.1094 12.6875C91.974 12.4583 91.9062 12.2031 91.9062 11.9219V11.9062C91.9062 11.5417 92.0104 11.2292 92.2188 10.9688C92.4271 10.6979 92.724 10.4896 93.1094 10.3438C93.4948 10.1979 93.9479 10.125 94.4688 10.125C95.3125 10.125 95.974 10.3281 96.4531 10.7344C96.9427 11.1302 97.224 11.6302 97.2969 12.2344L97.3125 12.3594H101.516V12.2031C101.484 11.224 101.188 10.3333 100.625 9.53125C100.073 8.72917 99.276 8.09375 98.2344 7.625C97.2031 7.14583 95.9479 6.90625 94.4688 6.90625C93.0521 6.90625 91.8125 7.125 90.75 7.5625C89.6979 7.98958 88.8854 8.59375 88.3125 9.375C87.7396 10.1562 87.4531 11.0833 87.4531 12.1562V12.1719C87.4531 13.0052 87.6354 13.7448 88 14.3906C88.3646 15.026 88.9062 15.5625 89.625 16C90.3542 16.4271 91.2604 16.7552 92.3438 16.9844L95.1875 17.5781C96.0104 17.7656 96.5833 17.9948 96.9062 18.2656C97.2292 18.5365 97.3906 18.8958 97.3906 19.3438V19.3594C97.3906 19.724 97.276 20.0365 97.0469 20.2969C96.8281 20.5573 96.5156 20.7604 96.1094 20.9062C95.7031 21.0417 95.2083 21.1094 94.625 21.1094C93.7188 21.1094 93.0104 20.9271 92.5 20.5625C91.9896 20.1979 91.6615 19.6875 91.5156 19.0312L91.4844 18.8906H87.0312L87.0469 19.0312C87.1719 20.0833 87.5365 21.0104 88.1406 21.8125C88.7552 22.6042 89.6042 23.224 90.6875 23.6719C91.7708 24.1198 93.0833 24.3438 94.625 24.3438ZM104.297 24H108.859V7.25H104.297V24ZM106.578 5.09375C107.266 5.09375 107.844 4.85938 108.312 4.39062C108.781 3.92188 109.016 3.36458 109.016 2.71875C109.016 2.0625 108.781 1.50521 108.312 1.04688C107.844 0.578125 107.266 0.34375 106.578 0.34375C105.891 0.34375 105.312 0.578125 104.844 1.04688C104.375 1.50521 104.141 2.0625 104.141 2.71875C104.141 3.36458 104.375 3.92188 104.844 4.39062C105.312 4.85938 105.891 5.09375 106.578 5.09375ZM119.75 29.8125C121.427 29.8125 122.875 29.5469 124.094 29.0156C125.323 28.4844 126.266 27.7448 126.922 26.7969C127.589 25.8594 127.922 24.7708 127.922 23.5312V7.25H123.359V10.1094H123.266C122.964 9.45312 122.562 8.88542 122.062 8.40625C121.573 7.92708 121 7.55729 120.344 7.29688C119.688 7.03646 118.964 6.90625 118.172 6.90625C116.755 6.90625 115.536 7.24479 114.516 7.92188C113.495 8.59896 112.703 9.57292 112.141 10.8438C111.589 12.1146 111.312 13.6406 111.312 15.4219V15.4375C111.312 17.1667 111.583 18.6562 112.125 19.9062C112.677 21.1458 113.458 22.099 114.469 22.7656C115.49 23.4323 116.698 23.7656 118.094 23.7656C118.906 23.7656 119.646 23.651 120.312 23.4219C120.99 23.1823 121.578 22.849 122.078 22.4219C122.578 21.9948 122.974 21.4896 123.266 20.9062H123.359V23.4688C123.359 24.4062 123.052 25.1562 122.438 25.7188C121.823 26.2812 120.927 26.5625 119.75 26.5625C118.802 26.5625 118.031 26.4062 117.438 26.0938C116.844 25.7812 116.453 25.4219 116.266 25.0156L116.219 24.9062H111.781L111.797 25.0469C111.943 25.9427 112.349 26.75 113.016 27.4688C113.693 28.1875 114.599 28.7552 115.734 29.1719C116.88 29.599 118.219 29.8125 119.75 29.8125ZM119.672 20.4219C118.922 20.4219 118.266 20.224 117.703 19.8281C117.141 19.4323 116.708 18.8698 116.406 18.1406C116.104 17.4115 115.953 16.5469 115.953 15.5469V15.5312C115.953 14.5208 116.104 13.6562 116.406 12.9375C116.708 12.2188 117.141 11.6667 117.703 11.2812C118.266 10.8854 118.922 10.6875 119.672 10.6875C120.411 10.6875 121.057 10.8854 121.609 11.2812C122.172 11.6667 122.604 12.224 122.906 12.9531C123.219 13.6719 123.375 14.5312 123.375 15.5312V15.5469C123.375 16.5469 123.219 17.4115 122.906 18.1406C122.604 18.8698 122.177 19.4323 121.625 19.8281C121.073 20.224 120.422 20.4219 119.672 20.4219ZM130.922 24H135.484V14.375C135.484 13.6354 135.62 12.9896 135.891 12.4375C136.172 11.8854 136.562 11.4583 137.062 11.1562C137.562 10.8438 138.151 10.6875 138.828 10.6875C139.849 10.6875 140.615 10.9896 141.125 11.5938C141.646 12.1875 141.906 13.0312 141.906 14.125V24H146.469V13.1875C146.469 11.2188 145.964 9.68229 144.953 8.57812C143.953 7.46354 142.531 6.90625 140.688 6.90625C139.427 6.90625 138.37 7.18229 137.516 7.73438C136.661 8.28646 136.016 9.04167 135.578 10H135.484V7.25H130.922V24Z" fill="#05012B"/>
</svg>
